PathFileType	4	(X/Y/Z)	C:/Users/beibeiliu/ov580/test_trc/User3\sequence.33_training_dense_right.trc
DataRate	CameraRate	NumFrames	NumMarkers	Units	OrigDataRate	OrigDataStartFrame	OrigNumFrames
120	120	22	19	mm	120	83	219
Frame#	Time	ThumbCMC			ThumbMCP			ThumbIP			ThumbTip			IndexMCP			IndexPIP			IndexTip			MiddleMCP			MiddlePIP			MiddleTip			RingMCP			RingPIP			RingTip			PinkyMCP			PinkyPIP			PinkyTip			BackHand1			BackHand2			BackHand3	
		X0	Y0	Z0	X1	Y1	Z1	X2	Y2	Z2	X3	Y3	Z3	X4	Y4	Z4	X5	Y5	Z5	X6	Y6	Z6	X7	Y7	Z7	X8	Y8	Z8	X9	Y9	Z9	X10	Y10	Z10	X11	Y11	Z11	X12	Y12	Z12	X13	Y13	Z13	X14	Y14	Z14	X15	Y15	Z15	X16	Y16	Z16	X17	Y17	Z17	X18	Y18	Z18	
82	0.683333	136.252	-16.4526	26.8094	139.617	2.15706	-1.27361	129.453	17.0952	-25.0263	103.941	16.6757	-32.7943	117.349	-14.1379	-42.9395	109.667	15.5899	-29.9244	110.201	-5.43486	-2.90728	95.4835	-11.205	-41.7902	91.6944	14.2315	-26.5962	95.4295	-10.4639	6.49814	77.9871	-14.1752	-30.7821	75.0116	9.34812	-9.64709	88.9479	-7.80201	13.3227	64.1233	-14.1049	-21.6777	67.0303	5.05406	-2.16127	74.123	-17.3555	19.9115	85.5518	-57.2642	8.99919	86.4394	-57.8885	39.8245	115.969	-52.35	18.7716	
83	0.691667	135.316	-14.9751	25.1671	143.311	6.54913	-0.790949	130.466	17.1601	-23.6046	104.314	18.3418	-32.9621	120.159	-10.9734	-41.9701	110.58	16.3188	-29.6027	114.025	-2.80324	-0.756044	96.3674	-14.3797	-40.2799	90.9449	14.0087	-23.4822	97.4038	-12.2202	7.3686	81.5292	-11.8269	-30.6565	77.9643	10.1002	-8.30016	87.1342	-10.4046	15.6152	64.5272	-13.1482	-20.6043	67.798	3.88095	1.94149	76.5409	-15.369	19.9655	84.7703	-56.0511	7.78636	84.4247	-56.5474	38.9056	119.068	-50.1035	21.5192	
84	0.7	138.271	-10.9698	30.3424	144.438	11.195	1.72047	132.776	22.6326	-27.816	103.329	17.8618	-33.2699	123.509	-9.63973	-42.1951	111.084	16.1223	-32.5712	116.754	-0.330436	0.142925	104	-13.7021	-39.3316	93.0422	15.0799	-22.8514	101.129	-8.26813	7.74123	83.1109	-13.6389	-30.9587	79.4158	9.36788	-13.1503	89.3465	-8.22214	14.2406	70.0476	-18.2466	-21.4976	68.5753	2.54282	0.41723	79.3093	-16.8045	19.7771	88.8929	-58.1139	8.29578	89.8762	-55.4741	37.2554	123.689	-47.5588	22.8866	
85	0.708333	137.401	-4.84403	28.4717	140.144	15.5908	3.79904	127.381	24.1622	-24.2139	101.875	19.3614	-34.9911	124.796	-9.48321	-40.1207	110.493	18.0453	-28.4611	114.025	1.996	-0.485755	106.715	-11.4298	-41.6242	95.6833	15.1869	-28.003	102.224	-7.63985	7.03101	84.3827	-14.8482	-32.2139	81.1491	9.33772	-13.7527	87.5816	-10.0134	13.7467	68.5231	-20.7409	-23.3579	70.0004	0.686107	-2.08162	74.5764	-18.1268	19.8719	93.761	-56.2617	5.70686	94.0804	-54.0503	41.3928	127.489	-43.4005	21.1316	
86	0.716667	133.496	1.27434	28.6093	134.841	24.289	2.805	121.628	30.1403	-28.8408	97.2498	22.4895	-37.9905	125.2	-3.04529	-40.2077	109.994	23.298	-30.6104	110.823	8.61187	-0.506269	105.348	-9.40644	-42.7736	92.6719	14.9616	-25.9399	96.7745	-3.50909	5.40919	90.0776	-14.9596	-31.9048	76.5956	4.76341	-16.345	90.2522	-11.4505	14.1467	76.3896	-22.1384	-24.3486	69.5546	-2.79161	-8.18126	77.1074	-22.7518	17.4367	101.676	-53.999	3.87241	100.77	-53.2552	41.9101	132.841	-37.6331	24.167	
87	0.725	129.61	10.7806	29.5	126.733	33.6383	2.365	114.072	35.2779	-23.6357	92.1242	20.3828	-39.6989	127.981	2.73642	-38.1758	102.973	24.4472	-29.4022	106.416	11.4341	0.762745	112.887	-6.46158	-41.3485	91.1129	17.1457	-28.4883	99.4173	-2.95661	6.86785	91.3031	-15.4933	-34.6928	76.9124	4.00333	-16.2679	88.0212	-9.46017	12.0354	81.1424	-23.9644	-26.4864	66.5666	-8.60029	-9.25314	79.07	-25.6155	14.6682	111.629	-52.89	4.5468	107.062	-51.9917	35.864	135.708	-30.0233	24.8477	
88	0.733333	121.564	17.9295	32.987	115.945	37.7582	4.37472	105.8	44.9344	-25.4191	88.6076	25.3549	-39.4769	124.646	12.4366	-38.0664	99.0697	27.527	-32.3608	99.4164	11.4249	1.22847	113.202	-5.16065	-40.8933	85.9344	12.7819	-31.9466	95.8932	-1.23981	7.8461	93.9424	-14.1635	-35.7599	75.7373	-0.725985	-17.1034	87.9668	-12.6787	11.9315	87.8505	-26.4112	-29.067	70.7199	-13.3319	-11.1262	82.7662	-30.334	14.09	123.665	-45.4952	4.1225	114.083	-49.5677	37.1619	135.891	-18.7037	30.1035	
89	0.741667	110.741	22.2769	34.3162	105.49	42.4706	7.07567	97.0405	43.9278	-22.1691	88.5233	18.4811	-36.7113	121.628	20.4101	-36.6634	91.9922	27.4892	-35.8139	87.3752	18.5116	-3.72285	114.525	1.5694	-40.8702	82.6572	12.9156	-34.1774	87.8495	-2.92064	4.71091	101.372	-12.4948	-35.7905	73.2694	-7.78117	-21.4315	85.6713	-12.6154	9.54576	91.2079	-27.3385	-32.6389	72.2051	-20.9856	-15.5883	82.3447	-29.2573	9.25175	129.761	-38.8142	4.34909	121.229	-44.7328	36.1594	135.442	-8.13935	31.5836	
90	0.75	102.569	26.8804	36.2403	100.481	43.6882	11.5649	97.2111	41.4044	-22.5622	92.6768	13.4632	-30.4475	115.244	27.5368	-38.4966	81.5868	28.2346	-41.2247	72.8711	17.8853	-13.8535	108.45	10.7739	-42.3877	76.0264	8.06781	-35.3746	79.9341	-5.03226	-0.473584	101.184	-7.05463	-36.6412	73.7955	-12.1058	-24.5728	82.0823	-20.0952	5.97515	100.253	-29.5478	-33.0683	75.7481	-24.2599	-17.8969	87.0854	-31.1701	9.20251	134.323	-22.9485	7.06803	124.067	-37.7493	37.5027	131.578	4.15657	32.9242	
91	0.758333	91.6933	26.3234	38.7303	91.5158	44.9257	9.65506	94.726	32.9986	-22.1417	94.7374	5.23324	-23.5664	110.677	36.3213	-31.6707	78.1123	29.2973	-44.1921	65.0451	17.8719	-16.7325	105.318	19.1589	-41.0332	76.095	10.122	-41.3207	74.2472	-7.13233	-3.64369	107.094	-5.02902	-35.179	75.927	-16.377	-25.2755	85.8043	-20.5518	6.4973	102.524	-20.6614	-33.0081	80.4732	-29.7004	-20.8128	88.5907	-36.7789	7.49275	136.398	-13.2419	10.3787	128.147	-28.3235	40.929	122.78	9.06093	35.1899	
92	0.766667	81.5101	24.2824	37.5236	79.6868	40.3843	11.3446	85.2	35.5993	-20.0244	91.0995	9.49177	-24.3171	101.203	40.0931	-33.7421	74.105	30.9627	-46.6276	60.7767	12.8864	-18.1691	104.325	20.9868	-40.9306	75.1508	6.2051	-42.11	70.6598	-7.72019	-7.21824	105.647	-1.09739	-36.2989	80.0277	-16.2142	-29.4482	83.8457	-17.9408	6.06798	108.883	-17.0823	-34.0868	84.7618	-27.6883	-23.4187	89.6047	-33.8835	3.44153	136.317	-5.35392	10.3463	128.901	-16.8962	39.2408	118.362	14.7302	32.8388	
93	0.775	72.8092	19.6805	37.3334	64.0106	38.9765	13.7158	76.0826	36.0965	-17.5398	89.9749	11.7412	-25.2693	91.3027	48.2124	-31.4147	67.2913	31.1129	-46.8499	56.1608	10.7487	-24.9936	101.464	29.3222	-34.9194	73.3541	7.22122	-43.4878	74.6249	-11.2956	-8.53098	108.607	4.87286	-33.9187	82.3864	-14.5523	-30.0579	82.4803	-18.3841	0.41977	113.173	-6.96582	-30.9392	90.511	-23.6637	-27.1723	92.5249	-32.2222	0.342399	132.072	8.19886	17.132	124.524	-10.1985	43.6578	109.415	21.3279	38.3105	
94	0.783333	69.0408	14.5759	36.3489	55.4092	36.1483	11.1735	62.1913	39.3268	-18.7829	81.9977	17.9627	-26.1426	84.3319	49.5073	-25.7724	67.0664	29.56	-48.6031	56.3023	5.65152	-26.6912	96.6943	34.4991	-33.4299	73.5871	10.7554	-46.0993	75.8428	-11.9547	-12.3374	106.864	11.5684	-33.4525	83.6528	-11.0848	-32.9342	86.0759	-20.9886	-2.14997	115.134	-1.51546	-29.8605	94.118	-24.5126	-25.9995	93.9977	-31.4941	0.926229	126.522	14.5345	17.4639	125.165	-5.7995	45.1388	103.399	21.0785	38.7981	
95	0.791667	64.7408	11.1223	34.7482	52.3639	31.5993	8.82083	57.8755	36.324	-17.1629	81.3131	18.3152	-30.4761	81.5561	49.6965	-25.8225	66.8916	31.0771	-51.0802	58.7383	4.46827	-35.3069	96.9202	34.5691	-36.3752	73.5194	7.25666	-46.9474	78.8121	-10.4946	-13.2242	107.149	13.1958	-35.2603	86.4138	-12.276	-34.0843	87.1766	-17.389	-1.28767	114.988	-0.879631	-34.8431	99.8889	-21.2864	-31.3975	94.5776	-26.8571	-2.15975	127.327	16.2131	19.7082	121.511	-3.00795	43.1669	95.0024	23.9155	41.4011	
96	0.8	61.1483	7.35631	31.3857	48.6223	25.078	7.03449	52.727	34.4322	-25.4449	77.0842	19.0081	-36.508	77.4684	47.2158	-32.4472	61.7434	29.8713	-55.1405	57.1696	0.796444	-39.7975	93.1789	31.925	-42.6994	78.3576	5.55895	-52.1688	79.3648	-10.7526	-13.205	104.718	15.7746	-37.0377	88.2153	-11.7953	-39.7226	88.305	-17.6406	-4.83479	117.851	1.59758	-33.2174	100.087	-20.1623	-31.9774	99.693	-26.5049	-0.318434	125.095	18.0458	16.1199	123.966	-1.83516	43.5518	90.6549	24.3781	34.6218	
97	0.808333	60.9597	4.26468	24.6004	48.3626	19.8597	-2.0767	57.2176	25.7109	-30.6355	77.2544	13.6456	-45.1557	74.9176	41.9806	-42.8467	63.4308	22.1585	-62.5687	56.7526	-5.62235	-44.6768	94.8479	25.4022	-48.9188	79.2908	0.0164081	-57.3825	78.4532	-13.2936	-17.7278	105.448	9.8464	-42.108	92.4431	-19.9695	-40.3598	90.769	-20.1248	-6.28247	118.47	-3.06508	-36.8748	101.446	-24.4298	-33.7092	100.321	-27.9921	-1.01679	120.679	20.2287	13.1987	121.61	1.82801	35.7541	90.9597	20.4582	30.657	
98	0.816667	57.1461	2.86244	18.8886	47.1238	13.5437	-13.128	52.4496	16.0007	-40.6298	76.9763	3.74897	-48.7705	77.4925	28.3977	-52.4547	66.6709	6.2207	-69.545	59.5268	-19.3879	-46.3352	94.7323	14.6927	-55.1716	79.9524	-15.3211	-57.8402	81.43	-19.5094	-21.4769	108.003	-1.4834	-46.6507	94.9877	-30.0377	-39.0806	90.487	-21.961	-6.8898	119.545	-11.5707	-38.5901	104.114	-31.6951	-32.2669	102.467	-30.6271	-0.176904	120.186	17.4132	6.45582	120.633	3.84604	32.0388	85.9148	22.2492	19.5916	
99	0.825	59.6504	-4.0752	17.2618	46.7476	2.18569	-15.9093	55.8834	2.59317	-48.6313	81.6114	-11.7905	-52.357	79.8743	13.375	-57.2648	69.3005	-16.2327	-73.293	63.1375	-34.2553	-47.351	97.0724	-1.43446	-60.9956	84.1874	-29.4323	-60.1028	82.3592	-27.5134	-21.6162	111.887	-14.656	-47.4181	95.9402	-40.1958	-39.4709	90.1608	-28.9694	-8.63915	119.419	-22.433	-39.9644	105.066	-41.8914	-27.2474	103.213	-29.6871	0.753544	122.249	15.0024	-0.443375	118.407	4.7753	31.6199	88.8512	21.2605	13.1303	
100	0.833333	61.1793	-6.65521	10.0212	47.0029	-8.45083	-20.3592	57.6804	-13.8888	-50.463	84.8013	-27.2328	-53.3966	79.3722	-4.46691	-62.8807	72.5422	-36.1455	-70.8413	68.2402	-50.4471	-44.5514	100.186	-14.7123	-58.7588	87.6628	-47.3025	-54.4697	83.0277	-35.4261	-18.575	111.176	-28.5417	-48.1163	97.6973	-52.0803	-33.6154	93.885	-37.3753	-4.91841	126.198	-35.9256	-35.5392	107.643	-51.4389	-22.7488	104.53	-34.9643	4.4425	121.631	9.58936	-3.69442	116.067	6.91446	25.1813	84.9543	15.2682	7.92051	
101	0.841667	57.5528	-11.3002	13.8437	49.9784	-20.8039	-17.9181	57.0587	-32.1686	-44.8436	81.7037	-44.4399	-49.8749	79.6681	-18.3574	-62.6834	71.9156	-51.1524	-66.5524	70.5641	-61.1749	-38.6129	98.6732	-32.5291	-59.0238	90.9417	-59.6499	-49.9163	88.1169	-41.679	-12.6847	112.428	-39.1528	-44.2153	103.304	-63.1462	-28.0866	94.174	-42.7036	-0.574458	126.69	-45.46	-31.1756	107.41	-58.9614	-16.404	106.424	-40.7943	8.72396	120.785	4.8054	-6.62073	117.97	4.1459	27.5735	84.5769	13.0139	7.79957	
102	0.85	55.7075	-13.8541	11.9295	43.5717	-35.1444	-15.2147	53.5176	-54.9663	-38.6894	77.0279	-68.8377	-43.3689	78.6357	-24.2471	-60.7254	69.8087	-57.7772	-62.4912	68.8635	-54.573	-27.6764	100.038	-41.3212	-54.7114	82.8946	-68.3315	-42.839	83.71	-46.6565	-8.1143	112.235	-51.2021	-39.5498	98.2312	-69.5957	-23.4014	93.5078	-47.5385	3.96428	121.636	-53.4329	-27.4136	106.854	-66.2986	-12.5015	105.723	-44.8134	12.5673	122.461	-2.63201	-6.6465	115.138	3.40793	26.2501	88.6781	9.40455	4.82729	
103	0.858333	58.4525	-17.8811	12.1011	45.8958	-41.5756	-12.3247	52.2252	-66.6597	-34.7682	75.4182	-80.9688	-38.6298	78.4859	-36.6368	-58.5595	66.7564	-66.4887	-51.3671	64.684	-52.3556	-21.6929	95.1882	-50.2651	-51.5671	81.4713	-75.1558	-36.815	79.3013	-47.4134	-3.45755	106.687	-56.045	-37.0484	92.1208	-74.7017	-17.5	89.947	-52.5919	6.35555	120.195	-59.3971	-23.8718	102.833	-71.5907	-7.82926	100.753	-49.9163	15.4674	120.812	-9.24968	-7.03532	115.991	0.213228	24.9836	88.9465	4.97896	2.44271	
